# 3ds Max Wavefront OBJ Exporter v0.97b - (c)2007 guruware
# File Created: 11.02.2013 16:32:49

#
# object Mesh_1342
#

v  -2.3341269 170.3957214 9.9381742
v  -2.2438171 169.9557343 10.0872850
v  -1.8144320 170.5382385 10.2226171
v  -2.3768270 170.9284363 9.7030745
v  -1.7615311 170.0964508 10.2965393
v  -1.6913351 169.9895325 10.2958364
v  -1.3778920 170.3260956 10.9174976
v  -1.8421329 171.0489807 10.0052691
v  -2.2162101 171.4296570 9.3960085
v  -1.4930050 170.3925476 10.9246693
v  -1.0555431 170.6101227 11.4552813
v  -1.3776550 170.8023376 10.6932459
v  -1.0991910 170.7014923 11.4647617
v  -0.9574410 170.7118988 11.6354828
v  -1.3078350 171.2809753 10.4229555
v  -1.0692350 171.1149139 11.2312975
v  -1.0804889 170.8021698 11.6455708
v  -0.5063930 170.9546509 12.0656910
v  -1.7529891 171.5073090 9.7047100
v  -0.5471220 171.0830383 12.1064243
v  0.0000000 171.0463409 12.2242708
v  -1.6426020 171.7991638 9.4670191
v  -1.9856950 171.7958984 9.2251463
v  -1.5553080 171.8643951 9.3690987
v  -1.2436030 171.7595978 10.1526661
v  -1.2095090 172.1250000 9.9355822
v  -1.1010151 172.1943665 9.8383465
v  -1.0181890 171.5935516 10.9610071
v  -0.9779740 172.0721741 10.6907177
v  -0.9563360 172.4590302 10.4722528
v  -0.8942820 172.5246582 10.3741217
v  -1.0510430 171.2166595 11.4114990
v  -1.0004060 171.6952972 11.1412096
v  -0.5471220 171.4819183 11.8811769
v  -0.9613310 172.1739349 10.8709192
v  -0.5084750 171.9605255 11.6108875
v  0.0000000 171.1560364 12.2222719
v  0.0000000 171.5580139 11.9952669
v  0.5897690 171.1023102 12.1064243
v  0.5490390 170.9739227 12.0656910
v  0.5471220 171.4819183 11.8811769
v  1.0803720 170.8021698 11.6455698
v  0.9574410 170.7118988 11.6354818
v  1.0509270 171.2166595 11.4114990
v  1.0991920 170.7014923 11.4647617
v  1.0555431 170.6101227 11.4552794
v  1.0692340 171.1149139 11.2312956
v  1.4930050 170.3925323 10.9246674
v  1.3778911 170.3260956 10.9174957
v  1.3782669 170.8023376 10.6932449
v  1.8144469 170.0964355 10.2965393
v  1.7442510 169.9895325 10.2958355
v  2.2157869 169.8836517 10.0962887
v  1.8469959 170.5382385 10.2226171
v  2.3522441 170.3478851 9.9601307
v  2.3987699 170.8763885 9.6895790
v  1.3286669 171.2809753 10.4229555
v  1.8427451 171.0489807 10.0052691
v  2.2494400 171.2800293 9.4625654
v  1.0388190 171.5935516 10.9610071
v  1.7535999 171.4116516 9.7363119
v  1.2442150 171.7595978 10.1526651
v  1.6432140 171.7438202 9.4286671
v  1.9863071 171.7002563 9.2567453
v  1.5559200 171.8090820 9.3307457
v  1.2101220 172.0770111 9.9788313
v  1.1016281 172.1463928 9.8815928
v  0.9783920 172.0721741 10.6907177
v  0.9563360 172.4412384 10.4901781
v  0.8942810 172.5068512 10.3920450
v  1.0214931 171.6952972 11.1412086
v  0.9616440 172.1739349 10.8709202
v  0.9399540 172.5568237 10.6546898
v  0.8552300 172.6264191 10.5543232
v  0.5295230 171.9605255 11.6108875
v  0.4937860 172.4391632 11.3405972
v  0.5073340 172.8116913 11.1302271
v  0.4937860 172.8916473 11.0240011
v  0.0105240 172.0366364 11.7249775
v  0.0000000 172.5133057 11.4557953
v  0.0000000 172.8715363 11.2523670
v  0.0000000 172.9588928 11.1430864
v  -0.4937860 172.8916473 11.0240011
v  -0.4937860 172.4391632 11.3405972
v  -0.5073350 172.8116913 11.1302290
v  -0.8552310 172.6264191 10.5543232
v  -0.9400720 172.5568237 10.6546888
# 87 vertices

vn -0.5165880 0.2482464 0.8194575
vn -0.4622641 0.1066489 0.8803056
vn -0.6263476 0.1960652 0.7544847
vn -0.5152558 0.4386668 0.7362627
vn -0.5862436 -0.1371436 0.7984423
vn -0.5465505 -0.3637901 0.7542807
vn -0.4017369 -0.7166594 0.5700936
vn -0.5949896 0.4090472 0.6918582
vn -0.4988894 0.5837482 0.6405837
vn -0.8169959 -0.1999424 0.5408703
vn -0.6482779 -0.4044716 0.6450880
vn -0.8526723 0.3415110 0.3953734
vn -0.8726163 -0.1523192 0.4640471
vn -0.4648331 -0.6206837 0.6314126
vn -0.8164868 0.3539849 0.4561184
vn -0.9606639 0.1991880 0.1935177
vn -0.8182319 -0.2011627 0.5385445
vn -0.3537692 -0.3952336 0.8477251
vn -0.5986578 0.5678025 0.5649859
vn -0.4677086 0.0668603 0.8813503
vn -0.0098461 -0.0360603 0.9993011
vn -0.5406405 0.7469296 0.3870454
vn -0.4407260 0.6525867 0.6163532
vn -0.4770856 0.8667915 0.1451270
vn -0.8374708 0.3542366 0.4161238
vn -0.7842708 0.6031168 0.1454976
vn -0.6130965 0.7833714 -0.1021858
vn -0.9641283 0.1971186 0.1777662
vn -0.9700233 0.1695348 0.1741052
vn -0.9235930 0.3833719 0.0014182
vn -0.7930394 0.5955024 -0.1283170
vn -0.9098499 0.2587715 0.3243615
vn -0.9125589 0.2615769 0.3143468
vn -0.5135434 0.4391555 0.7371674
vn -0.9190549 0.2368190 0.3150475
vn -0.5166434 0.4441104 0.7320147
vn -0.0073464 0.2747873 0.9614770
vn -0.0015569 0.4946185 0.8691088
vn 0.4792873 0.0992520 0.8720279
vn 0.3599302 -0.3967862 0.8443998
vn 0.5004957 0.4583839 0.7344305
vn 0.8229915 -0.2136422 0.5263477
vn 0.4683184 -0.6228745 0.6266620
vn 0.9132943 0.2477970 0.3232495
vn 0.8724979 -0.1521988 0.4643090
vn 0.6482639 -0.4044884 0.6450915
vn 0.9618430 0.1836339 0.2028220
vn 0.8012585 -0.1931763 0.5662753
vn 0.3962961 -0.7102981 0.5817440
vn 0.8430054 0.3384536 0.4180803
vn 0.5926120 -0.1105487 0.7978659
vn 0.5233182 -0.3487460 0.7775052
vn 0.4723059 0.0624262 0.8792213
vn 0.6315700 0.2132164 0.7454247
vn 0.5158812 0.2322349 0.8245808
vn 0.5398363 0.4442931 0.7149687
vn 0.8179566 0.3604393 0.4483643
vn 0.6090518 0.4431087 0.6578074
vn 0.4984412 0.5991442 0.6265641
vn 0.9640887 0.1971068 0.1779943
vn 0.6060348 0.5932371 0.5298977
vn 0.8486956 0.3585713 0.3887703
vn 0.5403530 0.7606122 0.3598439
vn 0.4053378 0.6481541 0.6446686
vn 0.4961594 0.8594227 0.1233633
vn 0.8026760 0.5806390 0.1362704
vn 0.6219370 0.7740522 -0.1184804
vn 0.9686697 0.1848284 0.1658839
vn 0.9329028 0.3597647 -0.0161762
vn 0.8099805 0.5632626 -0.1632998
vn 0.9142399 0.2590546 0.3115384
vn 0.9173681 0.2531606 0.3071571
vn 0.8631889 0.4854148 0.1388432
vn 0.7082710 0.7017112 -0.0771597
vn 0.5216770 0.4430844 0.7290605
vn 0.5313014 0.4274799 0.7314231
vn 0.5403533 0.5742380 0.6150358
vn 0.5655323 0.6896149 0.4523323
vn 0.0031435 0.4945106 0.8691659
vn -0.0015927 0.4906159 0.8713745
vn 0.0000010 0.6466193 0.7628129
vn 0.0000000 0.7811055 0.6243991
vn -0.5655284 0.6896222 0.4523259
vn -0.5339757 0.4179513 0.7349739
vn -0.5403171 0.5742670 0.6150405
vn -0.6927180 0.7191938 -0.0538713
vn -0.8604579 0.4854191 0.1548562
# 87 vertex normals

vt 0.9794084 0.2767056 0.0000000
vt 0.9801368 0.0850091 0.0000000
vt 0.8890483 0.2759485 0.0000000
vt 0.9794084 0.5112802 0.0000000
vt 0.8892912 0.0900542 0.0000000
vt 0.8892912 0.0431388 0.0000000
vt 0.8042747 0.0443998 0.0000000
vt 0.8892912 0.5105233 0.0000000
vt 0.9798940 0.7425759 0.0000000
vt 0.8042747 0.0857651 0.0000000
vt 0.7114856 0.0441479 0.0000000
vt 0.8042747 0.2779665 0.0000000
vt 0.7114856 0.0857651 0.0000000
vt 0.6859806 0.0441479 0.0000000
vt 0.8040318 0.5112802 0.0000000
vt 0.7114856 0.2802356 0.0000000
vt 0.6859806 0.0857651 0.0000000
vt 0.6016930 0.0438948 0.0000000
vt 0.8897767 0.7425759 0.0000000
vt 0.6016930 0.0880362 0.0000000
vt 0.5074462 0.0438948 0.0000000
vt 0.8905056 0.9312453 0.0000000
vt 0.9813516 0.9458753 0.0000000
vt 0.8907484 0.9743776 0.0000000
vt 0.8037891 0.7448470 0.0000000
vt 0.8037891 0.9317503 0.0000000
vt 0.8037891 0.9779086 0.0000000
vt 0.7114856 0.5135502 0.0000000
vt 0.7100279 0.7468649 0.0000000
vt 0.7107568 0.9330114 0.0000000
vt 0.7061417 0.9801787 0.0000000
vt 0.6859806 0.2809926 0.0000000
vt 0.6862233 0.5143073 0.0000000
vt 0.6016930 0.2827586 0.0000000
vt 0.6852521 0.7476209 0.0000000
vt 0.5951345 0.5160723 0.0000000
vt 0.5074462 0.0887932 0.0000000
vt 0.5074462 0.2875506 0.0000000
vt 0.4131999 0.0880362 0.0000000
vt 0.4131999 0.0438948 0.0000000
vt 0.4131999 0.2827586 0.0000000
vt 0.3155525 0.0857651 0.0000000
vt 0.3155525 0.0441479 0.0000000
vt 0.3155525 0.2809926 0.0000000
vt 0.2900478 0.0857651 0.0000000
vt 0.2900478 0.0441479 0.0000000
vt 0.2900478 0.2802356 0.0000000
vt 0.1965299 0.0857651 0.0000000
vt 0.1965299 0.0443998 0.0000000
vt 0.1958011 0.2779665 0.0000000
vt 0.1076272 0.0900542 0.0000000
vt 0.1076272 0.0431388 0.0000000
vt 0.0320838 0.0850091 0.0000000
vt 0.1073844 0.2759485 0.0000000
vt 0.0323270 0.2782186 0.0000000
vt 0.0323270 0.5112802 0.0000000
vt 0.1950723 0.5112802 0.0000000
vt 0.1076272 0.5105233 0.0000000
vt 0.0320838 0.7466119 0.0000000
vt 0.2902907 0.5135502 0.0000000
vt 0.1076272 0.7425759 0.0000000
vt 0.1941006 0.7448470 0.0000000
vt 0.1078700 0.9312453 0.0000000
vt 0.0315982 0.9458753 0.0000000
vt 0.1078700 0.9743776 0.0000000
vt 0.1933722 0.9317503 0.0000000
vt 0.1931293 0.9779086 0.0000000
vt 0.2895618 0.7468649 0.0000000
vt 0.2888334 0.9330114 0.0000000
vt 0.2878617 0.9801787 0.0000000
vt 0.3155525 0.5143073 0.0000000
vt 0.3140952 0.7476209 0.0000000
vt 0.3128808 0.9327593 0.0000000
vt 0.3119090 0.9809346 0.0000000
vt 0.4163577 0.5160723 0.0000000
vt 0.4224301 0.7493870 0.0000000
vt 0.4202443 0.9314983 0.0000000
vt 0.4224301 0.9827006 0.0000000
vt 0.5057464 0.5208653 0.0000000
vt 0.5074462 0.7531700 0.0000000
vt 0.5074462 0.9307413 0.0000000
vt 0.5074462 0.9832057 0.0000000
vt 0.5924627 0.9827006 0.0000000
vt 0.5924627 0.7493870 0.0000000
vt 0.5948917 0.9314983 0.0000000
vt 0.6820943 0.9809346 0.0000000
vt 0.6867094 0.9327593 0.0000000
# 87 texture coords

g Mesh_1342
f 1/1/1 2/2/2 3/3/3 
f 4/4/4 1/1/1 3/3/3 
f 5/5/5 3/3/3 2/2/2 
f 2/2/2 6/6/6 5/5/5 
f 5/5/5 6/6/6 7/7/7 
f 3/3/3 8/8/8 4/4/4 
f 9/9/9 4/4/4 8/8/8 
f 7/7/7 10/10/10 5/5/5 
f 10/10/10 7/7/7 11/11/11 
f 3/3/3 5/5/5 12/12/12 
f 10/10/10 12/12/12 5/5/5 
f 11/11/11 13/13/13 10/10/10 
f 12/12/12 10/10/10 13/13/13 
f 13/13/13 11/11/11 14/14/14 
f 12/12/12 15/15/15 3/3/3 
f 8/8/8 3/3/3 15/15/15 
f 13/13/13 16/16/16 12/12/12 
f 15/15/15 12/12/12 16/16/16 
f 14/14/14 17/17/17 13/13/13 
f 16/16/16 13/13/13 17/17/17 
f 17/17/17 14/14/14 18/18/18 
f 19/19/19 8/8/8 15/15/15 
f 8/8/8 19/19/19 9/9/9 
f 18/18/18 20/20/20 17/17/17 
f 20/20/20 18/18/18 21/21/21 
f 9/9/9 19/19/19 22/22/22 
f 22/22/22 23/23/23 9/9/9 
f 24/24/24 23/23/23 22/22/22 
f 22/22/22 19/19/19 25/25/25 
f 15/15/15 25/25/25 19/19/19 
f 24/24/24 22/22/22 26/26/26 
f 25/25/25 26/26/26 22/22/22 
f 26/26/26 27/27/27 24/24/24 
f 25/25/25 15/15/15 28/28/28 
f 16/16/16 28/28/28 15/15/15 
f 26/26/26 25/25/25 29/29/29 
f 28/28/28 29/29/29 25/25/25 
f 27/27/27 26/26/26 30/30/30 
f 29/29/29 30/30/30 26/26/26 
f 30/30/30 31/31/31 27/27/27 
f 28/28/28 16/16/16 32/32/32 
f 17/17/17 32/32/32 16/16/16 
f 32/32/32 17/17/17 20/20/20 
f 32/32/32 33/33/33 28/28/28 
f 29/29/29 28/28/28 33/33/33 
f 20/20/20 34/34/34 32/32/32 
f 33/33/33 32/32/32 34/34/34 
f 33/33/33 35/35/35 29/29/29 
f 30/30/30 29/29/29 35/35/35 
f 34/34/34 36/36/36 33/33/33 
f 35/35/35 33/33/33 36/36/36 
f 34/34/34 20/20/20 37/37/37 
f 21/21/21 37/37/37 20/20/20 
f 36/36/36 34/34/34 38/38/38 
f 37/37/37 38/38/38 34/34/34 
f 39/39/39 37/37/37 21/21/21 
f 21/21/21 40/40/40 39/39/39 
f 41/41/41 38/38/38 37/37/37 
f 37/37/37 39/39/39 41/41/41 
f 42/42/42 39/39/39 40/40/40 
f 40/40/40 43/43/43 42/42/42 
f 44/44/44 41/41/41 39/39/39 
f 39/39/39 42/42/42 44/44/44 
f 45/45/45 42/42/42 43/43/43 
f 43/43/43 46/46/46 45/45/45 
f 47/47/47 44/44/44 42/42/42 
f 42/42/42 45/45/45 47/47/47 
f 48/48/48 45/45/45 46/46/46 
f 46/46/46 49/49/49 48/48/48 
f 50/50/50 47/47/47 45/45/45 
f 45/45/45 48/48/48 50/50/50 
f 51/51/51 48/48/48 49/49/49 
f 48/48/48 51/51/51 50/50/50 
f 49/49/49 52/52/52 51/51/51 
f 53/53/53 51/51/51 52/52/52 
f 51/51/51 53/53/53 54/54/54 
f 54/54/54 50/50/50 51/51/51 
f 55/55/55 54/54/54 53/53/53 
f 54/54/54 55/55/55 56/56/56 
f 50/50/50 54/54/54 57/57/57 
f 47/47/47 50/50/50 57/57/57 
f 56/56/56 58/58/58 54/54/54 
f 58/58/58 57/57/57 54/54/54 
f 58/58/58 56/56/56 59/59/59 
f 57/57/57 60/60/60 47/47/47 
f 44/44/44 47/47/47 60/60/60 
f 57/57/57 58/58/58 61/61/61 
f 59/59/59 61/61/61 58/58/58 
f 60/60/60 57/57/57 62/62/62 
f 61/61/61 62/62/62 57/57/57 
f 63/63/63 61/61/61 59/59/59 
f 62/62/62 61/61/61 63/63/63 
f 59/59/59 64/64/64 63/63/63 
f 65/65/65 63/63/63 64/64/64 
f 66/66/66 63/63/63 65/65/65 
f 63/63/63 66/66/66 62/62/62 
f 65/65/65 67/67/67 66/66/66 
f 68/68/68 62/62/62 66/66/66 
f 62/62/62 68/68/68 60/60/60 
f 69/69/69 66/66/66 67/67/67 
f 66/66/66 69/69/69 68/68/68 
f 67/67/67 70/70/70 69/69/69 
f 71/71/71 60/60/60 68/68/68 
f 60/60/60 71/71/71 44/44/44 
f 41/41/41 44/44/44 71/71/71 
f 72/72/72 68/68/68 69/69/69 
f 68/68/68 72/72/72 71/71/71 
f 73/73/73 69/69/69 70/70/70 
f 69/69/69 73/73/73 72/72/72 
f 70/70/70 74/74/74 73/73/73 
f 71/71/71 75/75/75 41/41/41 
f 75/75/75 71/71/71 72/72/72 
f 38/38/38 41/41/41 75/75/75 
f 76/76/76 72/72/72 73/73/73 
f 72/72/72 76/76/76 75/75/75 
f 77/77/77 73/73/73 74/74/74 
f 73/73/73 77/77/77 76/76/76 
f 74/74/74 78/78/78 77/77/77 
f 75/75/75 79/79/79 38/38/38 
f 79/79/79 75/75/75 76/76/76 
f 38/38/38 79/79/79 36/36/36 
f 80/80/80 76/76/76 77/77/77 
f 76/76/76 80/80/80 79/79/79 
f 81/81/81 77/77/77 78/78/78 
f 77/77/77 81/81/81 80/80/80 
f 78/78/78 82/82/82 81/81/81 
f 81/81/81 82/82/82 83/83/83 
f 84/84/84 36/36/36 79/79/79 
f 79/79/79 80/80/80 84/84/84 
f 36/36/36 84/84/84 35/35/35 
f 80/80/80 81/81/81 85/85/85 
f 83/83/83 85/85/85 81/81/81 
f 85/85/85 84/84/84 80/80/80 
f 85/85/85 83/83/83 86/86/86 
f 87/87/87 35/35/35 84/84/84 
f 84/84/84 85/85/85 87/87/87 
f 86/86/86 87/87/87 85/85/85 
f 35/35/35 87/87/87 30/30/30 
f 87/87/87 86/86/86 31/31/31 
f 31/31/31 30/30/30 87/87/87 
# 0 polygons - 140 triangles

